<svg width="20px" height="15px" viewBox="338 22 20 15" version="1.1" xmlns="http://www.w3.org/2000/svg" xmlns:xlink="http://www.w3.org/1999/xlink">
    <!-- Generator: Sketch 39.1 (31720) - http://www.bohemiancoding.com/sketch -->
    <desc>Created with Sketch.</desc>
    <defs>
        <path d="M338.380795,22.9264361 C338.51828,22.410893 338.916744,22.037956 339.386663,22.037956 L356.07365,22.037956 C356.657345,22.037956 357.130795,22.6133436 357.130795,23.3227113 C357.130795,24.032079 356.657345,24.6074666 356.07365,24.6074666 L339.386663,24.6074666 C338.916744,24.6074666 338.51828,24.2345296 338.380795,23.7189866 L338.380795,22.9264361 L338.380795,22.9264361 Z M338.380795,34.743692 C338.51828,34.2281489 338.916744,33.855212 339.386663,33.855212 L356.07365,33.855212 C356.657345,33.855212 357.130795,34.4305995 357.130795,35.1399672 C357.130795,35.849335 356.657345,36.4247225 356.07365,36.4247225 L339.386663,36.4247225 C338.916744,36.4247225 338.51828,36.0517856 338.380795,35.5362425 L338.380795,34.743692 L338.380795,34.743692 Z M338.380795,28.5781348 C338.51828,28.0623122 338.916744,27.6900484 339.386663,27.6900484 L356.07365,27.6900484 C356.657345,27.6900484 357.130795,28.2643974 357.130795,28.9748037 C357.130795,29.6841714 356.657345,30.2585203 356.07365,30.2585203 L339.386663,30.2585203 C338.916744,30.2585203 338.51828,29.8862566 338.380795,29.3709759 L338.380795,28.5781348 L338.380795,28.5781348 Z" id="path-1"></path>
    </defs>
    <mask id="mask-2" fill="white">
        <use xlink:href="#path-1"></use>
    </mask>
    <use id="Clip-2" stroke="none" fill="#FFFFFF" fill-rule="evenodd" xlink:href="#path-1"></use>
</svg>